<svg height="189.10083" viewBox="0 0 500.00001 189.10083" width="500" xmlns="http://www.w3.org/2000/svg"><g transform="translate(-28.043685 -246.29778)"><g fill="#00346b"><path d="m28.043685 366.08312h18.470424v28.30168h.201042l20.851786-28.30168h22.244926l-25.620174 32.27439 27.605115 37.03996h-23.536129l-21.545524-31.47872h-.201042v31.47872h-18.470424v-69.31435z"/><path d="m131.71678 380.38374h-.19822l-8.9393 27.10959h17.38026zm-11.31785-14.2995h22.63852l26.71317 69.31435h-20.25716l-5.16481-14.79785h-26.0166l-5.46495 14.79785h-18.767742z"/><path d="m182.16482 379.78798h-17.07729v-13.70487h52.63065v13.70487h-17.08294v55.60948h-18.47042z"/></g><g fill="#e85113"><path d="m222.2827 366.08312h18.86684l8.93648 53.22529h.20388l9.33007-53.22529h23.43985l9.73216 53.22529h.20104l9.02992-53.22529h17.97773l-15.4916 69.31435h-23.73434l-9.83409-53.22529h-.19821l-9.13752 53.22529h-23.92689z"/><path d="m352.4764 380.38374h-.20103l-8.93649 27.10959h17.37743zm-11.3235-14.2995h22.64418l26.71033 69.31435h-20.25715l-5.16482-14.79785h-26.01658l-5.46213 14.79785h-18.77057z"/><path d="m0 0h1.718c.514 0 1.057.017 1.632.053.572.035 1.087.145 1.541.332.457.188.837.468 1.14.842.304.374.456.912.456 1.614 0 .561-.133 1.022-.401 1.385-.271.362-.621.636-1.053.824-.435.187-.937.316-1.51.386-.572.07-1.174.105-1.805.105h-1.718zm-6.523 10.17h11.643c1.075 0 2.092-.122 3.051-.368.958-.246 1.801-.625 2.526-1.139.723-.515 1.29-1.158 1.701-1.929.408-.772.612-1.684.612-2.736 0-1.637-.386-2.981-1.156-4.033-.772-1.052-1.953-1.766-3.542-2.141v-.069c.512-.139.929-.363 1.244-.666.316-.304.592-.684.825-1.139.233-.457.449-.984.649-1.58.198-.596.449-1.268.752-2.016l2.385-6.663h-6.802l-1.404 4.419c-.328 1.052-.638 1.916-.928 2.594-.294.679-.609 1.217-.947 1.614-.339.398-.727.673-1.158.825-.432.151-.954.228-1.56.228h-1.368v-9.68h-6.523z" transform="matrix(2.8315842 0 0 -2.8315842 415.73372 394.88147)"/><path d="m0 0h8.313l8.276-16.623h.071l-.105 16.623h5.961v-24.479h-8.102l-8.556 16.729h-.07l.211-16.729h-5.999z" transform="matrix(2.8315842 0 0 -2.8315842 464.28773 366.08313)"/></g><path d="m0 0c-.315 0-.571.256-.571.571 0 17.744-14.439 32.18-32.187 32.18-17.744 0-32.181-14.436-32.181-32.18 0-.315-.255-.571-.571-.571s-.571.256-.571.571c0 18.374 14.948 33.323 33.323 33.323 18.378 0 33.329-14.949 33.329-33.323 0-.315-.257-.571-.571-.571" fill="#00346b" transform="matrix(2.8315842 0 0 -2.8315842 314.24266 342.27149)"/><path d="m0 0c-.315 0-.571.256-.571.571 0 12.539-10.203 22.74-22.744 22.74-12.538 0-22.739-10.201-22.739-22.74 0-.315-.257-.571-.571-.571-.316 0-.573.256-.573.571 0 13.169 10.715 23.882 23.883 23.882 13.172 0 23.886-10.713 23.886-23.882 0-.315-.256-.571-.571-.571" fill="#00346b" transform="matrix(2.8315842 0 0 -2.8315842 287.50457 342.27149)"/><path d="m0 0c-.315 0-.571.256-.571.571 0 7.528-6.127 13.653-13.656 13.653-7.528 0-13.652-6.125-13.652-13.653 0-.315-.256-.571-.571-.571-.316 0-.571.256-.571.571 0 8.157 6.637 14.794 14.794 14.794 8.16 0 14.798-6.637 14.798-14.794 0-.315-.256-.571-.571-.571" fill="#00346b" transform="matrix(2.8315842 0 0 -2.8315842 261.77142 342.27149)"/><path d="m0 0c-3.234 0-5.855-2.621-5.855-5.857h11.712c0 3.236-2.621 5.857-5.857 5.857" fill="#e85113" transform="matrix(2.8315842 0 0 -2.8315842 221.52356 323.79115)"/></g></svg>