<?xml version="1.0" encoding="UTF-8" standalone="no"?>
<svg
   xmlns:dc="http://purl.org/dc/elements/1.1/"
   xmlns:cc="http://creativecommons.org/ns#"
   xmlns:rdf="http://www.w3.org/1999/02/22-rdf-syntax-ns#"
   xmlns:svg="http://www.w3.org/2000/svg"
   xmlns="http://www.w3.org/2000/svg"
   version="1.1"
   id="svg4456"
   viewBox="0 0 500.00001 189.10083"
   height="189.10083"
   width="500">
  <defs
     id="defs4458">
    <clipPath
       id="clipPath4222"
       clipPathUnits="userSpaceOnUse">
      <path
         id="path4224"
         d="m 73.701,490.922 182.841,0 0,71.755 -182.841,0 0,-71.755 z" />
    </clipPath>
  </defs>
  <metadata
     id="metadata4461">
    <rdf:RDF>
      <cc:Work
         rdf:about="">
        <dc:format>image/svg+xml</dc:format>
        <dc:type
           rdf:resource="http://purl.org/dc/dcmitype/StillImage" />
        <dc:title></dc:title>
      </cc:Work>
    </rdf:RDF>
  </metadata>
  <g
     transform="translate(-28.043685,-246.29778)"
     id="layer1">
    <path
       d="m 28.043685,366.08312 18.470424,0 0,28.30168 0.201042,0 20.851786,-28.30168 22.244926,0 -25.620174,32.27439 27.605115,37.03996 -23.536129,0 -21.545524,-31.47872 -0.201042,0 0,31.47872 -18.470424,0 0,-69.31435 z"
       style="fill:#00346b;fill-opacity:1;fill-rule:nonzero;stroke:none"
       id="path4200" />
    <path
       d="m 131.71678,380.38374 -0.19822,0 -8.9393,27.10959 17.38026,0 -8.24274,-27.10959 z m -11.31785,-14.2995 22.63852,0 26.71317,69.31435 -20.25716,0 -5.16481,-14.79785 -26.0166,0 -5.46495,14.79785 -18.767742,0 26.319572,-69.31435 z"
       style="fill:#00346b;fill-opacity:1;fill-rule:nonzero;stroke:none"
       id="path4204" />
    <path
       d="m 182.16482,379.78798 -17.07729,0 0,-13.70487 52.63065,0 0,13.70487 -17.08294,0 0,55.60948 -18.47042,0 0,-55.60948 z"
       style="fill:#00346b;fill-opacity:1;fill-rule:nonzero;stroke:none"
       id="path4208" />
    <path
       d="m 222.2827,366.08312 18.86684,0 8.93648,53.22529 0.20388,0 9.33007,-53.22529 23.43985,0 9.73216,53.22529 0.20104,0 9.02992,-53.22529 17.97773,0 -15.4916,69.31435 -23.73434,0 -9.83409,-53.22529 -0.19821,0 -9.13752,53.22529 -23.92689,0 -15.39532,-69.31435 z"
       style="fill:#e85113;fill-opacity:1;fill-rule:nonzero;stroke:none"
       id="path4212" />
    <path
       d="m 352.4764,380.38374 -0.20103,0 -8.93649,27.10959 17.37743,0 -8.23991,-27.10959 z m -11.3235,-14.2995 22.64418,0 26.71033,69.31435 -20.25715,0 -5.16482,-14.79785 -26.01658,0 -5.46213,14.79785 -18.77057,0 26.31674,-69.31435 z"
       style="fill:#e85113;fill-opacity:1;fill-rule:nonzero;stroke:none"
       id="path4216" />
    <g
       transform="matrix(2.8315842,0,0,-2.8315842,415.73372,394.88147)"
       id="g4226">
      <path
         id="path4228"
         style="fill:#e85113;fill-opacity:1;fill-rule:nonzero;stroke:none"
         d="M 0,0 1.718,0 C 2.232,0 2.775,0.017 3.35,0.053 3.922,0.088 4.437,0.198 4.891,0.385 5.348,0.573 5.728,0.853 6.031,1.227 6.335,1.601 6.487,2.139 6.487,2.841 6.487,3.402 6.354,3.863 6.086,4.226 5.815,4.588 5.465,4.862 5.033,5.05 4.598,5.237 4.096,5.366 3.523,5.436 2.951,5.506 2.349,5.541 1.718,5.541 L 0,5.541 0,0 Z m -6.523,10.17 11.643,0 c 1.075,0 2.092,-0.122 3.051,-0.368 C 9.129,9.556 9.972,9.177 10.697,8.663 11.42,8.148 11.987,7.505 12.398,6.734 12.806,5.962 13.01,5.05 13.01,3.998 13.01,2.361 12.624,1.017 11.854,-0.035 11.082,-1.087 9.901,-1.801 8.312,-2.176 l 0,-0.069 c 0.512,-0.139 0.929,-0.363 1.244,-0.666 0.316,-0.304 0.592,-0.684 0.825,-1.139 0.233,-0.457 0.449,-0.984 0.649,-1.58 0.198,-0.596 0.449,-1.268 0.752,-2.016 l 2.385,-6.663 -6.802,0 -1.404,4.419 c -0.328,1.052 -0.638,1.916 -0.928,2.594 -0.294,0.679 -0.609,1.217 -0.947,1.614 -0.339,0.398 -0.727,0.673 -1.158,0.825 -0.432,0.151 -0.954,0.228 -1.56,0.228 l -1.368,0 0,-9.68 -6.523,0 0,24.479 z" />
    </g>
    <g
       transform="matrix(2.8315842,0,0,-2.8315842,464.28773,366.08313)"
       id="g4230">
      <path
         id="path4232"
         style="fill:#e85113;fill-opacity:1;fill-rule:nonzero;stroke:none"
         d="m 0,0 8.313,0 8.276,-16.623 0.071,0 L 16.555,0 l 5.961,0 0,-24.479 -8.102,0 -8.556,16.729 -0.07,0 0.211,-16.729 -5.999,0 L 0,0 Z" />
    </g>
    <g
       transform="matrix(2.8315842,0,0,-2.8315842,314.24266,342.27149)"
       id="g4234">
      <path
         id="path4236"
         style="fill:#00346b;fill-opacity:1;fill-rule:nonzero;stroke:none"
         d="m 0,0 c -0.315,0 -0.571,0.256 -0.571,0.571 0,17.744 -14.439,32.18 -32.187,32.18 -17.744,0 -32.181,-14.436 -32.181,-32.18 0,-0.315 -0.255,-0.571 -0.571,-0.571 -0.316,0 -0.571,0.256 -0.571,0.571 0,18.374 14.948,33.323 33.323,33.323 C -14.38,33.894 0.571,18.945 0.571,0.571 0.571,0.256 0.314,0 0,0" />
    </g>
    <g
       transform="matrix(2.8315842,0,0,-2.8315842,287.50457,342.27149)"
       id="g4238">
      <path
         id="path4240"
         style="fill:#00346b;fill-opacity:1;fill-rule:nonzero;stroke:none"
         d="m 0,0 c -0.315,0 -0.571,0.256 -0.571,0.571 0,12.539 -10.203,22.74 -22.744,22.74 -12.538,0 -22.739,-10.201 -22.739,-22.74 0,-0.315 -0.257,-0.571 -0.571,-0.571 -0.316,0 -0.573,0.256 -0.573,0.571 0,13.169 10.715,23.882 23.883,23.882 C -10.143,24.453 0.571,13.74 0.571,0.571 0.571,0.256 0.315,0 0,0" />
    </g>
    <g
       transform="matrix(2.8315842,0,0,-2.8315842,261.77142,342.27149)"
       id="g4242">
      <path
         id="path4244"
         style="fill:#00346b;fill-opacity:1;fill-rule:nonzero;stroke:none"
         d="m 0,0 c -0.315,0 -0.571,0.256 -0.571,0.571 0,7.528 -6.127,13.653 -13.656,13.653 -7.528,0 -13.652,-6.125 -13.652,-13.653 0,-0.315 -0.256,-0.571 -0.571,-0.571 -0.316,0 -0.571,0.256 -0.571,0.571 0,8.157 6.637,14.794 14.794,14.794 8.16,0 14.798,-6.637 14.798,-14.794 C 0.571,0.256 0.315,0 0,0" />
    </g>
    <g
       transform="matrix(2.8315842,0,0,-2.8315842,221.52356,323.79115)"
       id="g4246">
      <path
         id="path4248"
         style="fill:#e85113;fill-opacity:1;fill-rule:nonzero;stroke:none"
         d="m 0,0 c -3.234,0 -5.855,-2.621 -5.855,-5.857 l 11.712,0 C 5.857,-2.621 3.236,0 0,0" />
    </g>
  </g>
</svg>
